<svg xmlns="http://www.w3.org/2000/svg" xmlns:xlink="http://www.w3.org/1999/xlink" width="500" zoomAndPan="magnify" viewBox="0 0 375 374.999991" height="500" preserveAspectRatio="xMidYMid meet" version="1.0"><defs><g/><clipPath id="id1"><path d="M 52.332031 126 L 117 126 L 117 191 L 52.332031 191 Z M 52.332031 126 " clip-rule="nonzero"/></clipPath><clipPath id="id2"><path d="M 257 184 L 322.332031 184 L 322.332031 249 L 257 249 Z M 257 184 " clip-rule="nonzero"/></clipPath></defs><g clip-path="url(#id1)"><path fill="#1b69f2" d="M 54.984375 190.488281 L 52.332031 190.488281 L 52.332031 126.058594 L 116.679688 126.058594 L 116.679688 128.71875 L 54.984375 128.71875 Z M 54.984375 190.488281 " fill-opacity="1" fill-rule="nonzero"/></g><g clip-path="url(#id2)"><path fill="#1b69f2" d="M 322.332031 248.9375 L 257.984375 248.9375 L 257.984375 246.28125 L 319.679688 246.28125 L 319.679688 184.507812 L 322.332031 184.507812 Z M 322.332031 248.9375 " fill-opacity="1" fill-rule="nonzero"/></g><g fill="#1b69f2" fill-opacity="1"><g transform="translate(76.529401, 196.041431)"><g><path d="M 1.707031 -21.523438 L 7.859375 -21.523438 C 8.609375 -21.523438 9.054688 -21.183594 9.054688 -20.15625 L 9.054688 0 L 11.445312 0 L 11.445312 -20.15625 C 11.445312 -20.839844 11.445312 -21.523438 10.589844 -21.523438 L 18.792969 -21.523438 L 18.792969 -23.917969 L 1.707031 -23.917969 Z M 1.707031 -21.523438 "/></g></g></g><g fill="#1b69f2" fill-opacity="1"><g transform="translate(100.787071, 196.041431)"><g><path d="M 12.984375 0 C 20.15625 0 24.941406 -4.785156 24.941406 -11.957031 C 24.941406 -19.132812 20.15625 -23.917969 12.984375 -23.917969 C 5.808594 -23.917969 1.023438 -19.132812 1.023438 -11.957031 C 1.023438 -4.785156 5.808594 0 12.984375 0 Z M 3.246094 -11.957031 C 3.246094 -17.800781 7.140625 -21.695312 12.984375 -21.695312 C 18.824219 -21.695312 22.71875 -17.800781 22.71875 -11.957031 C 22.71875 -6.117188 18.824219 -2.222656 12.984375 -2.222656 C 7.140625 -2.222656 3.246094 -6.117188 3.246094 -11.957031 Z M 3.246094 -11.957031 "/></g></g></g><g fill="#1b69f2" fill-opacity="1"><g transform="translate(130.511242, 196.041431)"><g><path d="M 18.792969 0 L 18.792969 -2.390625 L 5.125 -2.390625 C 4.441406 -2.390625 4.101562 -2.734375 4.101562 -3.417969 L 4.101562 -23.917969 L 1.707031 -23.917969 L 1.707031 0 Z M 18.792969 0 "/></g></g></g><g fill="#1b69f2" fill-opacity="1"><g transform="translate(154.768911, 196.041431)"><g><path d="M 1.707031 -8.542969 C 1.707031 -3.417969 5.125 0 10.25 0 C 15.375 0 18.792969 -3.417969 18.792969 -8.542969 L 18.792969 -23.917969 L 16.398438 -23.917969 L 16.398438 -8.542969 C 16.398438 -4.851562 13.941406 -2.390625 10.25 -2.390625 C 6.558594 -2.390625 4.101562 -4.851562 4.101562 -8.542969 L 4.101562 -23.917969 L 1.707031 -23.917969 Z M 1.707031 -8.542969 "/></g></g></g><g fill="#1b69f2" fill-opacity="1"><g transform="translate(179.026581, 196.041431)"><g><path d="M 1.707031 -15.375 L 4.101562 -15.375 L 4.101562 -23.917969 L 1.707031 -23.917969 Z M 1.707031 -15.375 "/></g></g></g><g fill="#1b69f2" fill-opacity="1"><g transform="translate(188.592987, 196.041431)"><g><path d="M 2.628906 -17.425781 C 2.699219 -9.90625 16.296875 -13.667969 16.023438 -6.832031 C 15.921875 -4.066406 13.324219 -2.359375 10.214844 -2.359375 C 6.492188 -2.359375 4.066406 -4.886719 4.066406 -8.507812 L 1.707031 -8.507812 C 1.707031 -3.449219 5.054688 0 10.25 0 C 14.757812 0 18.484375 -2.664062 18.449219 -6.832031 C 18.414062 -15.683594 5.125 -12.574219 5.089844 -17.425781 C 5.089844 -20.089844 7.34375 -21.898438 10.214844 -21.898438 C 13.1875 -21.898438 15.511719 -20.292969 16.195312 -17.425781 L 18.484375 -18.109375 C 17.59375 -21.898438 14.519531 -24.257812 10.25 -24.257812 C 5.707031 -24.257812 2.597656 -21.628906 2.628906 -17.425781 Z M 2.628906 -17.425781 "/></g></g></g><g fill="#1b69f2" fill-opacity="1"><g transform="translate(212.543158, 196.041431)"><g/></g></g><g fill="#1b69f2" fill-opacity="1"><g transform="translate(226.551112, 196.041431)"><g><path d="M 6.082031 -5.054688 C 6.320312 -5.808594 6.832031 -6.148438 7.859375 -6.148438 L 16.910156 -6.148438 L 19.132812 0 L 21.660156 0 L 12.949219 -23.917969 L 10.421875 -23.917969 L 1.707031 0 L 4.238281 0 Z M 11.683594 -20.429688 L 16.023438 -8.542969 L 8.609375 -8.542969 C 7.859375 -8.542969 7.515625 -8.542969 7.175781 -8.199219 Z M 11.683594 -20.429688 "/></g></g></g><g fill="#1b69f2" fill-opacity="1"><g transform="translate(253.678696, 196.041431)"><g><path d="M 1.707031 0 L 4.101562 0 L 4.101562 -6.832031 C 4.101562 -7.515625 4.785156 -7.859375 5.464844 -7.859375 L 10.695312 -7.859375 C 15.546875 -7.859375 18.792969 -11.070312 18.792969 -15.886719 C 18.792969 -20.703125 15.546875 -23.917969 10.695312 -23.917969 L 1.707031 -23.917969 Z M 10.695312 -21.523438 C 14.316406 -21.523438 16.570312 -19.269531 16.570312 -15.886719 C 16.570312 -12.503906 14.078125 -10.25 10.695312 -10.25 L 5.125 -10.25 C 4.441406 -10.25 4.101562 -9.90625 4.101562 -9.90625 L 4.101562 -21.523438 Z M 10.695312 -21.523438 "/></g></g></g><g fill="#1b69f2" fill-opacity="1"><g transform="translate(277.936365, 196.041431)"><g><path d="M 1.707031 0 L 4.101562 0 L 4.101562 -6.832031 C 4.101562 -7.515625 4.785156 -7.859375 5.464844 -7.859375 L 10.695312 -7.859375 C 15.546875 -7.859375 18.792969 -11.070312 18.792969 -15.886719 C 18.792969 -20.703125 15.546875 -23.917969 10.695312 -23.917969 L 1.707031 -23.917969 Z M 10.695312 -21.523438 C 14.316406 -21.523438 16.570312 -19.269531 16.570312 -15.886719 C 16.570312 -12.503906 14.078125 -10.25 10.695312 -10.25 L 5.125 -10.25 C 4.441406 -10.25 4.101562 -9.90625 4.101562 -9.90625 L 4.101562 -21.523438 Z M 10.695312 -21.523438 "/></g></g></g></svg>